<?xml version="1.0" encoding="iso-8859-1"?>
<!-- Uploaded to: SVG Repo, www.svgrepo.com, Generator: SVG Repo Mixer Tools -->
<svg version="1.1" id="Layer_1" xmlns="http://www.w3.org/2000/svg" xmlns:xlink="http://www.w3.org/1999/xlink" 
	 viewBox="0 0 451.5 451.5" xml:space="preserve">
<g>
	<g>
		<path style="fill:#F4661E;" d="M225.75,213.12c52.333,0,94.72,42.387,94.72,94.72s-42.387,94.72-94.72,94.72
			s-94.72-42.387-94.72-94.72S173.417,213.12,225.75,213.12z"/>
	</g>
	<g>
		<path d="M348.49,47.36v290.08c0,54.622-44.438,99.06-99.06,99.06h-47.36c-54.622,0-99.06-44.438-99.06-99.06V71.04h-15v266.4
			c0,62.893,51.167,114.06,114.06,114.06h47.36c62.893,0,114.06-51.167,114.06-114.06V47.36H348.49z"/>
		<path d="M225.75,410.06c56.364,0,102.22-45.855,102.22-102.22s-45.855-102.22-102.22-102.22s-102.22,45.855-102.22,102.22
			S169.386,410.06,225.75,410.06z M143.147,279.82h70.763v-15h-64.009c15.018-26.374,43.39-44.2,75.849-44.2
			c48.093,0,87.22,39.127,87.22,87.22c0,14.353-3.487,27.906-9.655,39.86H213.91v15h79.592
			c-16.004,19.727-40.429,32.359-67.751,32.359c-48.093,0-87.22-39.127-87.22-87.22C138.53,298.043,140.155,288.618,143.147,279.82z
			"/>
		<rect x="218.25" y="11.84" width="15" height="159.84"/>
		<rect x="289.29" y="76.96" width="15" height="71.04"/>
		<rect x="147.21" y="41.44" width="15" height="106.56"/>
		<rect x="289.29" y="29.6" width="15" height="23.681"/>
		<rect x="147.21" width="15" height="23.68"/>
		<rect x="237.59" y="264.82" width="23.68" height="15"/>
		<rect x="178.39" y="306.26" width="59.2" height="15"/>
	</g>
</g>
</svg>