<?xml version="1.0" encoding="iso-8859-1"?>
<!-- Uploaded to: SVG Repo, www.svgrepo.com, Generator: SVG Repo Mixer Tools -->
<svg height="800px" width="800px" version="1.1" id="Layer_1" xmlns="http://www.w3.org/2000/svg" xmlns:xlink="http://www.w3.org/1999/xlink" 
	 viewBox="0 0 255.927 255.927" xml:space="preserve">
<g>
	<g>
		<g>
			<path style="fill:#4EFFBB;" d="M245.468,107.43c-2.854-2.81-7.386-2.81-10.24,0l-46.593,46.498
				c-3.141-12.641-9.241-24.31-17.982-34.216l25.045-24.995c2.818-2.81,2.818-7.383,0-10.193s-7.386-2.81-10.204,0L160.236,109.7
				c-8.206-6.59-17.517-11.525-27.507-14.552l64.897-64.65c2.818-2.81,2.818-7.383,0-10.193s-7.386-2.81-10.204,0l-71.89,71.675
				c-2.248-0.181-4.495-0.359-6.779-0.359c-22.013,0-42.707,8.571-58.26,24.06c-15.556,15.523-24.118,36.161-24.118,58.093
				c0,21.935,8.562,42.57,24.118,58.093c15.556,15.489,36.25,24.06,58.263,24.06s42.67-8.571,58.26-24.06
				c15.556-15.523,24.118-36.161,24.118-58.093c0-0.648-0.072-1.26-0.109-1.908l54.443-54.276
				C248.286,114.78,248.286,110.24,245.468,107.43z"/>
		</g>
		<g>
			<g id="XMLID_19_">
				<g>
					<g>
						<path style="fill:#222051;" d="M227.356,89.148c-2.86-2.726-7.33-2.701-10.156,0.081l-46.596,46.498
							c-3.141-12.641-9.241-24.31-17.982-34.216l24.792-24.742c2.526-2.523,3.138-6.612,1.049-9.514
							c-2.676-3.714-7.895-4.025-10.997-0.935l-25.259,25.176C134,84.906,124.69,79.971,114.7,76.944l14.034-13.981
							c2.829-2.818,2.843-7.422,0.033-10.259l0,0c-2.785-2.812-7.297-2.826-10.098-0.031L97.5,73.779
							c-2.248-0.181-4.495-0.359-6.779-0.359c-22.013,0-42.707,8.571-58.26,24.06C16.908,113,8.345,133.638,8.345,155.573
							s8.562,42.57,24.118,58.096c15.556,15.486,36.247,24.06,58.26,24.06s42.67-8.571,58.26-24.06
							c15.556-15.523,24.118-36.161,24.118-58.096c0-0.648-0.072-1.26-0.106-1.908l54.134-53.97
							C229.979,96.854,230.263,91.925,227.356,89.148z M99.856,216.403c1.427,1.405,3.246,2.125,5.102,2.125
							c0.465,0,0.926-0.036,1.391-0.145c1.355-0.253,2.676-0.937,3.711-1.981l47.199-47.038
							c-2.676,12.821-8.991,24.636-18.48,34.108c-8.919,8.86-19.837,14.983-31.788,17.901c-5.244,1.296-10.702,1.944-16.268,1.944
							c-18.16,0-35.212-7.06-48.056-19.846C29.823,190.686,22.76,173.65,22.76,155.568s7.063-35.115,19.907-47.903
							C53.655,96.716,67.712,90.017,82.912,88.29l-13.664,13.65c-2.818,2.81-2.818,7.383,0,10.156
							c1.391,1.441,3.246,2.125,5.102,2.125s3.675-0.684,5.102-2.125l23.262-23.159c10.632,1.872,20.586,6.267,29.22,12.821
							l-9.097,9.077c-2.818,2.81-2.818,7.383,0,10.193c1.391,1.405,3.246,2.089,5.102,2.089c1.819,0,3.675-0.684,5.102-2.089
							l9.383-9.364c8.849,10.337,14.307,22.906,15.804,36.375l-58.371,58.204C97.038,209.056,97.038,213.593,99.856,216.403z"/>
					</g>
					<g>
						<path style="fill:#222051;" d="M176.053,15.828l3.283-3.271c2.531-2.52,3.143-6.612,1.054-9.514
							c-2.676-3.717-7.898-4.028-10.999-0.935l-3.422,3.411c-2.804,2.796-2.818,7.361-0.031,10.173
							c0.033,0.033,0.067,0.067,0.1,0.103C168.801,18.582,173.274,18.596,176.053,15.828z"/>
					</g>
					<g>
						<path style="fill:#222051;" d="M146.797,24.635l-8.91,8.882c-2.801,2.793-2.815,7.355-0.031,10.168l0.097,0.097
							c2.76,2.785,7.227,2.801,10.006,0.033l8.913-8.88c2.804-2.793,2.818-7.358,0.033-10.168c-0.033-0.033-0.067-0.067-0.1-0.103
							C154.043,21.878,149.573,21.864,146.797,24.635z"/>
					</g>
					<path style="fill:#302C58;" d="M106.349,218.384c-0.465,0.109-0.926,0.145-1.391,0.145c-1.855,0-3.675-0.721-5.102-2.125
						c-2.818-2.81-2.818-7.347,0-10.156l58.368-58.201c-1.499-13.47-6.957-26.041-15.804-36.375l-9.383,9.364
						c-1.427,1.405-3.283,2.089-5.102,2.089c-1.855,0-3.711-0.684-5.102-2.089c-2.818-2.81-2.818-7.383,0-10.193l9.097-9.077
						c-8.635-6.554-18.588-10.949-29.22-12.821l-23.262,23.159c-1.427,1.441-3.246,2.125-5.102,2.125s-3.711-0.684-5.102-2.125
						c-2.818-2.773-2.818-7.347,0-10.156l13.664-13.65c-15.197,1.73-29.256,8.429-40.245,19.375
						c-12.844,12.785-19.907,29.821-19.907,47.903s7.063,35.115,19.907,47.903c12.844,12.785,29.896,19.846,48.056,19.846
						c5.566,0,11.024-0.648,16.268-1.944c11.951-2.918,22.869-9.041,31.788-17.901c9.489-9.472,15.804-21.287,18.48-34.108
						l-47.196,47.035C109.025,217.449,107.707,218.133,106.349,218.384z M61.576,127.371l-12.096,12.1
						c-1.427,1.405-3.283,2.089-5.102,2.089c-1.855,0-3.711-0.684-5.102-2.089c-2.818-2.81-2.818-7.383,0-10.193l12.095-12.065
						c2.818-2.81,7.386-2.81,10.204,0C64.394,120.024,64.394,124.561,61.576,127.371z"/>
				</g>
			</g>
		</g>
	</g>
</g>
</svg>