<?xml version="1.0" encoding="iso-8859-1"?>
<!-- Uploaded to: SVG Repo, www.svgrepo.com, Generator: SVG Repo Mixer Tools -->
<svg version="1.1" id="Layer_1" xmlns="http://www.w3.org/2000/svg" xmlns:xlink="http://www.w3.org/1999/xlink" 
	 viewBox="0 0 512.004 512.004" xml:space="preserve">
<path style="fill:#F9B233;" d="M87.812,316.028c-44.202,0-80.036-35.834-80.036-80.035s35.834-80.036,80.036-80.036h248.11
	c8.841,0,16.008,7.167,16.008,16.006s-7.167,16.006-16.008,16.006h-40.017c-8.841,0-16.008,7.167-16.008,16.008
	c0,8.84,7.167,16.006,16.008,16.006h192.085c8.841,0,16.008,7.167,16.008,16.006c0,8.84-7.167,16.008-16.008,16.008H383.944
	c-8.84,0-16.006,7.167-16.006,16.006c0,8.84,7.167,16.006,16.006,16.006h32.014c8.84,0,16.006,7.167,16.006,16.006
	c0,8.841-7.167,16.008-16.006,16.008H87.812V316.028z"/>
<circle style="fill:#77AAD4;" cx="87.809" cy="235.992" r="48.026"/>
<path style="fill:#1D71B8;" d="M87.812,284.014c26.522,0,48.022-21.5,48.022-48.022c0-26.522-21.5-48.022-48.022-48.022
	C87.812,187.971,122.814,228.724,87.812,284.014"/>
<g>
	<path style="fill:#1D1D1B;" d="M415.958,323.804H87.812C39.392,323.804,0,284.412,0,235.992s39.392-87.812,87.812-87.812h248.11
		c13.114,0,23.784,10.669,23.784,23.783s-10.67,23.783-23.784,23.783h-40.017c-4.539,0-8.231,3.693-8.231,8.231
		s3.693,8.23,8.231,8.23h192.085c13.114,0,23.784,10.669,23.784,23.783s-10.67,23.784-23.784,23.784H383.944
		c-4.538,0-8.23,3.692-8.23,8.23c0,4.538,3.693,8.23,8.23,8.23h32.014c13.114,0,23.783,10.669,23.783,23.783
		C439.741,313.131,429.072,323.804,415.958,323.804z M87.812,163.733c-39.844,0-72.259,32.415-72.259,72.259
		s32.415,72.259,72.259,72.259h328.146c4.538,0,8.23-3.693,8.23-8.231s-3.693-8.23-8.23-8.23h-32.014
		c-13.114,0-23.783-10.669-23.783-23.783c0-13.114,10.669-23.783,23.783-23.783H487.99c4.539,0,8.231-3.693,8.231-8.231
		s-3.693-8.23-8.231-8.23H295.905c-13.114,0-23.784-10.669-23.784-23.783s10.67-23.784,23.784-23.784h40.017
		c4.539,0,8.231-3.692,8.231-8.23s-3.693-8.23-8.231-8.23H87.812V163.733z"/>
	<path style="fill:#1D1D1B;" d="M87.812,291.79c-30.767,0-55.797-25.031-55.797-55.798s25.031-55.798,55.797-55.798
		c30.767,0,55.798,25.031,55.798,55.798S118.578,291.79,87.812,291.79z M87.812,195.747c-22.191,0-40.244,18.054-40.244,40.245
		s18.054,40.245,40.244,40.245c22.191,0,40.245-18.054,40.245-40.245S110.003,195.747,87.812,195.747z"/>
</g>
<g>
	<rect x="143.839" y="180.191" style="fill:#FFFFFF;" width="48.026" height="15.552"/>
	<rect x="159.847" y="228.216" style="fill:#FFFFFF;" width="96.041" height="15.552"/>
	<rect x="135.834" y="276.242" style="fill:#FFFFFF;" width="32.014" height="15.552"/>
	<rect x="183.85" y="276.242" style="fill:#FFFFFF;" width="120.054" height="15.552"/>
	<rect x="207.862" y="180.191" style="fill:#FFFFFF;" width="40.017" height="15.552"/>
</g>
<g>
	<rect x="95.813" y="116.167" style="fill:#1D1D1B;" width="32.014" height="15.552"/>
	<rect x="143.839" y="100.158" style="fill:#1D1D1B;" width="304.131" height="15.552"/>
	<rect x="175.845" y="348.27" style="fill:#1D1D1B;" width="72.028" height="15.552"/>
	<rect x="263.892" y="364.279" style="fill:#1D1D1B;" width="208.09" height="15.552"/>
	<rect x="271.897" y="60.137" style="fill:#1D1D1B;" width="232.103" height="15.552"/>
	<rect x="423.957" y="140.18" style="fill:#1D1D1B;" width="24.013" height="15.552"/>
	<rect x="479.987" y="164.182" style="fill:#1D1D1B;" width="32.014" height="15.552"/>
	<rect x="471.983" y="12.119" style="fill:#1D1D1B;" width="40.018" height="15.552"/>
	<rect x="415.963" y="28.13" style="fill:#1D1D1B;" width="24.013" height="15.552"/>
	<rect x="303.903" y="412.294" style="fill:#1D1D1B;" width="16.006" height="15.552"/>
	<rect x="359.933" y="412.294" style="fill:#1D1D1B;" width="152.071" height="15.552"/>
	<rect x="463.978" y="316.253" style="fill:#1D1D1B;" width="32.014" height="15.552"/>
	<rect x="471.983" y="484.332" style="fill:#1D1D1B;" width="40.018" height="15.552"/>
	<rect x="423.957" y="460.32" style="fill:#1D1D1B;" width="32.014" height="15.552"/>
</g>
</svg>