<?xml version="1.0" encoding="iso-8859-1"?>
<!-- Uploaded to: SVG Repo, www.svgrepo.com, Generator: SVG Repo Mixer Tools -->
<svg height="800px" width="800px" version="1.1" id="Layer_1" xmlns="http://www.w3.org/2000/svg" xmlns:xlink="http://www.w3.org/1999/xlink" 
	 viewBox="0 0 503.893 503.893" xml:space="preserve">
<g transform="translate(9 9)">
	<path style="fill:#80D6FA;" d="M294.185,440.28c7.68-7.68,0-22.187-7.68-29.013c-7.68-7.68-32.427,18.773-22.187,29.013
		C271.998,447.96,286.505,447.96,294.185,440.28 M401.705,336.173c7.68-22.187,36.693-29.867,22.187-44.373s-44.373,0-51.2,0
		c-16.213,0-22.187,29.013-36.693,22.187c-14.507-7.68-29.013,7.68-14.507,14.507c14.507,7.68,29.013,14.507,36.693,22.187
		C365.012,358.36,394.878,358.36,401.705,336.173 M170.452,98.093c-0.853-0.853-1.707-2.56-2.56-4.267l0,0
		c11.947-7.68,26.453-13.653,26.453-13.653c25.6-11.093,53.76-17.067,82.773-17.067c17.92,0,35.84,2.56,52.053,6.827
		c-4.267,20.48,10.24,29.013,10.24,36.693s0,44.373-14.507,44.373c-14.507,0-51.2,22.187-36.693,44.373
		c14.507,22.187,22.187,51.2,36.693,44.373c14.507-7.68,26.453-52.053,36.693-51.2c25.6,0.853,25.6,38.4,40.96,45.227
		c10.24,5.12,53.76,0,81.067-11.947l5.12,26.453c1.707,9.387,1.707,19.627,1.707,29.867c0,117.76-95.573,213.333-213.333,213.333
		c-28.16-17.92-68.267-46.08-51.2-84.48c22.187-51.2,0-66.56-7.68-73.387c-7.68-7.68-22.187-7.68-14.507-29.867
		c7.68-22.187,22.187-14.507,22.187-51.2s-58.88-29.013-51.2-7.68c7.68,22.187-7.68,51.2-36.693,73.387
		c-29.013,22.187-36.693-36.693-22.187-51.2c10.24-10.24-22.187-15.36-49.493-13.653v-1.707l4.267-25.6
		c2.56-11.947,6.827-23.04,11.093-34.133c0,0,9.387-17.92,12.8-23.893l0,0c0.853,0.853,1.707,1.707,2.56,2.56
		c1.707,1.707,3.413,2.56,5.12,3.413c8.533,5.12,17.92,9.387,29.013,9.387c28.16,0,51.2-23.04,51.2-51.2
		c0-10.24-3.413-20.48-9.387-28.16C173.011,101.507,172.158,99.8,170.452,98.093"/>
	<path style="fill:#50DD8E;" d="M277.118,490.627c-24.747,0-51.2-5.973-51.2-5.973c-93.013-23.04-162.133-106.667-162.133-207.36
		c0-8.533,0-16.213,1.707-24.747l0,0c27.307-0.853,59.733,4.267,49.493,13.653c-14.507,14.507-7.68,73.387,22.187,51.2
		s44.373-51.2,36.693-73.387c-7.68-22.187,51.2-29.013,51.2,7.68s-14.507,29.013-22.187,51.2
		c-7.68,22.187,7.68,22.187,14.507,29.867c7.68,7.68,29.013,22.187,7.68,73.387C208.852,444.547,248.958,472.707,277.118,490.627z
		 M286.505,411.267c7.68,7.68,14.507,22.187,7.68,29.013c-7.68,7.68-22.187,7.68-29.013,0
		C254.078,430.04,279.678,403.587,286.505,411.267z M329.172,70.787c10.24,2.56,28.16,9.387,28.16,9.387
		c60.587,24.747,107.52,76.8,125.44,141.653c-27.307,11.947-70.827,17.067-81.067,11.947c-14.507-7.68-14.507-44.373-40.96-45.227
		c-10.24-0.853-22.187,44.373-36.693,51.2c-14.507,7.68-22.187-22.187-36.693-44.373C272.852,173.187,309.545,151,324.052,151
		c14.507,0,14.507-36.693,14.507-44.373C339.412,99.8,324.905,91.267,329.172,70.787z M423.892,291.8
		c14.507,14.507-14.507,22.187-22.187,44.373c-7.68,22.187-36.693,22.187-44.373,14.507c-7.68-7.68-22.187-14.507-36.693-22.187
		c-14.507-7.68,0-22.187,14.507-14.507c14.507,7.68,20.48-22.187,36.693-22.187C380.372,291.8,409.385,277.293,423.892,291.8z"/>
	<path style="fill:#AE938D;" d="M173.865,104.067c5.12,8.533,9.387,17.92,9.387,28.16c0,28.16-23.04,51.2-51.2,51.2
		c-11.093,0-20.48-4.267-29.013-9.387c-5.12-16.213-5.12-41.813-5.12-41.813c0-18.773,15.36-34.133,34.133-34.133
		c0,0,30.72,0,40.96,6.827L173.865,104.067z"/>
</g>
<path style="fill:#51565F;" d="M286.118,503.893c-0.853,0-1.707,0-2.56-0.853c-21.333-13.653-72.533-45.227-52.907-89.6
	c19.627-45.227,3.413-58.88-4.267-66.56c-0.853-0.853-1.707-1.707-1.707-1.707c-1.707-1.707-3.413-2.56-5.973-4.267
	c-6.827-4.267-17.067-10.24-10.24-29.867c3.413-9.387,7.68-13.653,11.093-17.92c5.973-5.973,10.24-11.093,10.24-31.573
	c0-11.093-6.827-16.213-11.947-18.773c-10.24-4.267-23.893-2.56-29.013,2.56c-3.413,2.56-2.56,5.973-2.56,7.68
	c7.68,23.893-7.68,55.467-38.4,78.507c-14.507,11.093-23.893,3.413-27.307-0.853c-11.093-13.653-11.947-46.08,0-57.173
	c0.853-0.853,0.853-0.853,0.853-0.853c-1.707-2.56-19.627-6.827-43.52-5.973c-0.853,6.827-0.853,13.653-0.853,20.48
	c0,96.427,64.853,180.053,158.72,203.093c2.56,0.853,3.413,2.56,3.413,5.12c-0.853,2.56-2.56,3.413-5.12,3.413
	c-97.28-23.893-165.547-110.933-165.547-211.627c0-9.387,0.853-17.067,1.707-25.6v-0.853c0-0.853,0.853-0.853,0.853-1.707
	c0.853-0.853,0.853-0.853,1.707-0.853h0.853c2.56,0,49.493-1.707,55.467,11.093c0.853,1.707,1.707,5.973-2.56,9.387
	c-8.533,8.533-7.68,35.84,0.853,46.08c2.56,2.56,6.827,5.973,16.213-0.853c28.16-20.48,41.813-48.64,34.987-69.12
	c-1.707-5.973-0.853-11.947,4.267-16.213c8.533-7.68,25.6-9.387,38.4-4.267c11.093,5.12,17.067,14.507,17.067,26.453
	c0,24.747-6.827,31.573-12.8,37.547c-3.413,3.413-6.827,7.68-9.387,15.36c-4.267,13.653,0,16.213,6.827,19.627
	c2.56,1.707,5.12,3.413,6.827,5.12c0.853,0.853,0.853,0.853,1.707,1.707c9.387,8.533,28.16,26.453,6.827,76.8
	c-13.653,32.427,16.213,58.027,48.64,78.507c114.347-0.853,208.213-93.867,208.213-209.067c0-9.387-0.853-19.627-1.707-29.013
	c0-2.56,1.707-4.267,3.413-5.12c2.56,0,4.267,1.707,5.12,3.413c1.707,10.24,1.707,20.48,1.707,29.867
	C503.718,406.613,406.438,503.893,286.118,503.893z M288.678,459.52c-6.827,0-12.8-2.56-17.92-6.827
	c-3.413-3.413-4.267-8.533-3.413-14.507c2.56-10.24,12.8-21.333,21.333-23.04c5.12-1.707,8.533,0.853,9.387,1.707
	c8.533,8.533,17.067,25.6,7.68,35.84l0,0C301.478,456.96,295.505,459.52,288.678,459.52z M292.092,422.827
	c-1.707,0-8.533,3.413-12.8,11.093c-2.56,4.267-5.12,10.24-2.56,12.8c5.973,5.973,17.92,5.973,23.04,0
	C304.892,441.6,298.918,429.653,292.092,422.827C292.945,422.827,292.945,422.827,292.092,422.827z M381.692,368.213
	c-7.68,0-14.507-1.707-17.92-5.973c-6.827-6.827-21.333-14.507-35.84-21.333c-9.387-4.267-9.387-11.947-7.68-16.213
	c3.413-7.68,14.507-11.093,25.6-5.973c4.267,1.707,6.827,0,13.653-8.533c5.12-6.827,11.947-14.507,21.333-14.507
	c0.853,0,4.267-0.853,7.68-1.707c12.8-3.413,34.133-9.387,46.933,3.413c3.413,3.413,5.12,6.827,5.12,11.093
	c0,6.827-5.12,11.947-11.093,17.92c-5.973,5.12-11.947,11.947-14.507,19.627c-3.413,11.093-11.947,17.92-23.893,21.333
	C388.518,368.213,385.105,368.213,381.692,368.213z M336.465,325.547c-4.267,0-6.827,1.707-7.68,3.413
	c-0.853,1.707,1.707,3.413,3.413,5.12c14.507,7.68,29.867,15.36,37.547,23.04c2.56,2.56,10.24,4.267,19.627,2.56
	c5.12-0.853,14.507-5.12,17.92-15.36c3.413-10.24,11.093-17.92,17.067-23.04c4.267-4.267,8.533-8.533,8.533-11.093
	c0-1.707-0.853-3.413-2.56-5.12c-9.387-9.387-26.453-4.267-38.4-0.853c-4.267,1.707-7.68,2.56-10.24,2.56
	c-5.973,0-10.24,5.12-14.507,11.093c-5.973,6.827-12.8,16.213-23.893,10.24C340.732,325.547,339.025,325.547,336.465,325.547z
	 M328.785,253.867c-10.24,0-17.067-13.653-23.893-27.307c-3.413-6.827-6.827-13.653-11.093-20.48
	c-5.12-7.68-5.12-16.213-0.853-24.747c8.533-15.36,30.72-26.453,40.96-26.453c5.12,0,10.24-10.24,10.24-40.107
	c0-0.853-1.707-3.413-3.413-5.973c-3.413-5.973-9.387-14.507-7.68-27.307c-15.36-3.413-31.573-5.12-47.787-5.12
	c-28.16,0-55.467,5.12-81.067,16.213c-2.56,0.853-4.267,0-5.973-2.56c-0.853-2.56,0-4.267,2.56-5.973
	c26.453-11.093,55.467-17.067,84.48-17.067c17.92,0,35.84,2.56,53.76,6.827c2.56,0.853,3.413,2.56,3.413,5.12
	c-2.56,11.947,1.707,18.773,5.973,24.747c2.56,3.413,4.267,6.827,4.267,10.24c0,32.427-5.973,48.64-18.773,48.64
	c-8.533,0-27.307,9.387-34.133,21.333c-3.413,5.973-2.56,11.093,0.853,16.213c4.267,6.827,8.533,14.507,11.947,20.48
	c8.533,17.067,13.653,24.747,19.627,22.187c5.973-3.413,12.8-16.213,17.92-27.307c7.68-14.507,11.947-24.747,20.48-24.747
	c17.92,0.853,25.6,16.213,31.573,29.013c3.413,7.68,6.827,14.507,11.093,17.067c7.68,4.267,46.08,0,74.24-10.24
	c-17.92-60.587-63.147-110.933-122.027-134.827c-2.56-0.853-3.413-3.413-2.56-5.973c0.853-2.56,3.413-3.413,5.973-2.56
	c62.293,25.6,110.08,79.36,128,144.213v0.853c0,0.853,0,1.707-0.853,1.707c0,0.853-0.853,0.853-0.853,1.707l-0.853,0.853
	c-27.307,11.947-72.533,17.92-84.48,11.947c-6.827-3.413-11.093-11.947-15.36-20.48c-5.973-11.947-11.093-23.04-23.893-23.893
	c-2.56,0.853-8.533,12.8-12.8,20.48c-6.827,12.8-13.653,26.453-22.187,30.72C333.052,253.013,331.345,253.867,328.785,253.867z
	 M78.758,239.36h-0.853c-2.56-0.853-3.413-2.56-2.56-5.12c2.56-11.947,6.827-23.04,11.947-34.133c0.853-1.707,3.413-3.413,5.12-2.56
	c1.707,0.853,3.413,3.413,2.56,5.12l-11.093,33.28C82.172,237.653,80.465,239.36,78.758,239.36z M141.052,196.693
	c-16.213,0-29.013-7.68-36.693-13.653c-17.067-11.947-101.547-71.68-102.4-71.68c-1.707-1.707-2.56-4.267-0.853-5.973
	c1.707-1.707,4.267-2.56,5.973-0.853c0.853,0.853,85.333,59.733,102.4,72.533c11.093,8.533,21.333,11.947,31.573,11.947
	c25.6,0,46.933-21.333,46.933-46.933c0-10.24-4.267-20.48-11.947-31.573c-12.8-17.067-72.533-102.4-72.533-103.253
	c-1.707-1.707-0.853-4.267,0.853-5.973s4.267-0.853,5.973,0.853c0.853,0.853,59.733,85.333,72.533,102.4
	c9.387,11.947,13.653,23.893,13.653,36.693C196.518,171.947,171.772,196.693,141.052,196.693z M106.918,145.493
	c-2.56,0-4.267-1.707-4.267-4.267c0-21.333,17.067-38.4,38.4-38.4c2.56,0,4.267,1.707,4.267,4.267c0,2.56-1.707,4.267-4.267,4.267
	c-16.213,0-29.867,13.653-29.867,29.867C111.185,143.787,109.478,145.493,106.918,145.493z M81.318,111.36
	c-0.853,0-1.707,0-2.56-0.853l-25.6-23.04c-0.853-0.853-1.707-1.707-1.707-3.413c0-0.853,0-1.707,0.853-2.56
	c1.707-1.707,4.267-1.707,5.973,0l25.6,23.04c0.853,0.853,1.707,1.707,1.707,3.413c0,0.853,0,1.707-0.853,2.56
	C83.878,110.507,82.172,111.36,81.318,111.36z M106.918,85.76c-0.853,0-2.56-0.853-3.413-1.707l-23.04-25.6
	c-0.853-0.853-0.853-1.707-0.853-2.56c0-0.853,0.853-2.56,1.707-3.413c1.707-1.707,4.267-1.707,5.973,0l23.04,25.6
	c0.853,0.853,0.853,1.707,0.853,2.56c0,0.853-0.853,2.56-1.707,3.413C108.625,85.76,107.772,85.76,106.918,85.76z M30.118,66.133
	c-0.853,0-1.707,0-2.56-0.853l-25.6-23.04c-0.853-0.853-1.707-1.707-1.707-3.413c0-0.853,0-1.707,0.853-2.56
	c1.707-1.707,4.267-1.707,5.973,0l25.6,23.04c0.853,0.853,1.707,1.707,1.707,3.413c0,0.853,0,1.707-0.853,2.56
	C32.678,65.28,30.972,66.133,30.118,66.133z M64.252,37.973c-0.853,0-2.56-0.853-3.413-1.707l-25.6-29.013
	c-0.853-0.853-0.853-1.707-0.853-2.56c0-0.853,0.853-2.56,1.707-3.413c1.707-1.707,4.267-1.707,5.973,0l25.6,29.013
	c0.853,0.853,0.853,1.707,0.853,2.56c0,0.853-0.853,2.56-1.707,3.413C65.958,37.12,65.105,37.973,64.252,37.973z"/>
</svg>