<?xml version="1.0" encoding="iso-8859-1"?>
<!-- Uploaded to: SVG Repo, www.svgrepo.com, Generator: SVG Repo Mixer Tools -->
<svg version="1.1" id="Layer_1" xmlns="http://www.w3.org/2000/svg" xmlns:xlink="http://www.w3.org/1999/xlink" 
	 viewBox="0 0 264.499 264.499" xml:space="preserve">
<g>
	<g>
		<g id="XMLID_38_">
			<g>
				<path style="fill:#EAEEEF;" d="M204.441,68.393l-39.528,39.528c-6.248-7.719-13.126-13.907-19.524-18.713l39.948-39.918
					L204.441,68.393z"/>
				<path style="fill:#505967;" d="M234.207,53.224l-11.053,11.023c-0.36-0.781-0.841-1.532-1.472-2.163l-30.036-30.006
					c-1.021-1.021-2.223-1.652-3.514-1.982l11.474-11.444L234.207,53.224z"/>
				<rect x="27.137" y="207.251" style="fill:#454D5B;" width="184.063" height="17.361"/>
				<path style="fill:#505967;" d="M27.137,207.251v10.987h165.08c5.863,0,10.618-4.755,10.618-10.618v-0.369H27.137z"/>
				<rect x="36.778" y="240.051" style="fill:#EAEEEF;" width="164.779" height="9.011"/>
				<path style="fill:#EAEEEF;" d="M36.778,151.263c0-45.415,36.975-82.36,82.39-82.36c7.509,0,14.778,1.081,21.686,3.004
					l-8.711,8.711c-5.767-3.214-9.792-4.776-10.302-4.986c-3.995-1.532-8.44,0.481-9.972,4.445c-1.532,3.965,0.451,8.44,4.415,9.972
					c0.36,0.15,35.984,14.297,48.839,48.989c1.141,3.124,4.115,5.046,7.239,5.046c0.901,0,1.802-0.15,2.673-0.481
					c4.025-1.472,6.067-5.917,4.566-9.912c-1.682-4.566-3.664-8.771-5.887-12.735l14.508-14.478
					c8.41,12.886,13.336,28.264,13.336,44.784v40.549H36.779C36.779,191.812,36.779,151.263,36.778,151.263z"/>
				<path style="fill:#2D213F;" d="M250.577,47.758c3.004,3.034,3.004,7.9,0,10.933L228.11,81.128
					c-1.442,1.442-3.394,2.253-5.437,2.253c-2.073,0-4.025-0.811-5.467-2.253l-1.832-1.832l-16.039,16.039
					c11.113,15.889,17.661,35.143,17.661,55.928v40.549h1.952c4.265,0,7.719,3.454,7.719,7.719v32.8
					c0,4.265-3.454,7.719-7.719,7.719h-1.952v16.73c0,4.265-3.454,7.719-7.719,7.719H29.059c-4.265,0-7.719-3.454-7.719-7.719
					v-16.73h-1.952c-4.265,0-7.719-3.454-7.719-7.719v-32.8c0-4.265,3.454-7.719,7.719-7.719h1.952v-40.549
					c0-53.915,43.883-97.798,97.828-97.798c11.954,0,23.398,2.193,34.001,6.127l21.236-21.236l-2.733-2.733
					c-1.442-1.442-2.253-3.394-2.253-5.467c0-2.042,0.811-3.995,2.253-5.437l22.467-22.466c3.034-3.004,7.9-3.004,10.933,0
					L250.577,47.758z M223.154,64.248l11.053-11.023l-34.602-34.572l-11.474,11.444c1.292,0.33,2.493,0.961,3.514,1.982
					l30.036,30.006C222.313,62.716,222.794,63.467,223.154,64.248z M211.2,224.612v-17.361H27.137v17.361H211.2z M164.914,107.921
					l39.528-39.528L185.338,49.29L145.39,89.208C151.788,94.014,158.666,100.201,164.914,107.921z M201.558,249.061v-9.011H36.779
					v9.011H201.558z M201.558,191.812v-40.549c0-16.52-4.926-31.899-13.336-44.784l-14.508,14.478
					c2.223,3.965,4.205,8.17,5.887,12.735c1.502,3.995-0.541,8.44-4.566,9.912c-0.871,0.33-1.772,0.481-2.673,0.481
					c-3.124,0-6.097-1.922-7.239-5.046c-12.856-34.692-48.479-48.839-48.839-48.989c-3.965-1.532-5.947-6.007-4.415-9.972
					s5.977-5.977,9.972-4.445c0.511,0.21,4.535,1.772,10.302,4.986l8.711-8.711c-6.908-1.922-14.177-3.004-21.686-3.004
					c-45.415,0-82.39,36.945-82.39,82.36v40.549h164.78V191.812z"/>
			</g>
		</g>
		<path style="fill:#C5CBCF;" d="M58.954,139.51c7.945-34.722,32.662-52.308,53.885-61.16c1.79-2.484,4.905-3.703,7.951-3.004
			c6.266-2.115,11.912-3.478,16.358-4.343c-5.791-1.334-11.795-2.1-17.98-2.1c-45.415,0-82.39,36.945-82.39,82.36v40.549h125.378
			l-74.992-10.975C67.497,177.959,54.521,158.886,58.954,139.51z"/>
		<path style="fill:#C5CBCF;" d="M173.27,61.349l-27.88,27.859c4.235,3.181,8.671,7.032,13.006,11.468
			C156.792,87.403,165.097,72.46,173.27,61.349z"/>
		<path style="fill:#454D5B;" d="M223.454,63.947c-14.562-16.142-22.437-39.089-24.263-44.88l-11.059,11.029
			c1.292,0.33,2.493,0.961,3.514,1.982l30.036,30.006c0.631,0.631,1.111,1.382,1.472,2.163L223.454,63.947z"/>
	</g>
</g>
</svg>