<?xml version="1.0" encoding="iso-8859-1"?>
<!-- Uploaded to: SVG Repo, www.svgrepo.com, Generator: SVG Repo Mixer Tools -->
<svg height="800px" width="800px" version="1.1" id="Layer_1" xmlns="http://www.w3.org/2000/svg" xmlns:xlink="http://www.w3.org/1999/xlink" 
	 viewBox="0 0 271.909 271.909" xml:space="preserve">
<g>
	<g>
		<path style="fill:#FEDE94;" d="M253.664,80.654c-4.328-3.737-10.816-3.478-14.829,0.598l-15.295,15.52
			c-3.415-3.454-7.05-7.125-10.768-10.885l33.812-34.512c4.43-4.523,4.118-11.831-0.682-15.961
			c-4.388-3.776-10.96-3.511-15.03,0.604l-33.712,34.09c-3.941-3.983-7.755-7.839-11.309-11.432l15.168-15.535
			c4.37-4.478,4.064-11.714-0.673-15.805c-4.328-3.737-10.816-3.475-14.829,0.598l-15.009,15.231
			c-3.283-3.319-5.184-5.241-5.07-5.127c2.202,2.205-140.174,143.358-140.907,145.565c-0.733,2.205,2.935,50.728,2.935,50.728
			l35.227,30.877l44.033-8.822l111.552-109.543l27.522-27.57c0,0-2.637-2.667-6.914-6.989l15.451-15.826
			C258.707,91.981,258.401,84.745,253.664,80.654z"/>
		<path style="fill:#F2CE75;" d="M147.392,63.933C131.344,80.156,24.733,182.988,24.529,183.602
			c-0.733,2.205,2.935,50.728,2.935,50.728l35.227,30.877l44.033-8.822l14.429-14.168
			C20.053,243.773,112.415,109.938,147.392,63.933z"/>
		<g>
			<g id="XMLID_40_">
				<g>
					<g>
						<path style="fill:#F47C6D;" d="M91.212,193.96c6.728,6.848,6.728,17.992,0,24.84c-6.728,6.848-17.691,6.848-24.45,0
							c-6.728-6.848-6.728-17.992,0-24.84C73.521,187.143,84.484,187.143,91.212,193.96z"/>
					</g>
					<g>
						<path style="fill:#2D213F;" d="M253.379,108.507c-3.004-3.094-7.9-3.064-10.903,0.03L113.77,241.718
							c-0.601,0.601-1.201,1.201-1.832,1.772c-19.283,17.661-49.139,17.091-67.732-1.772c-19.163-19.494-19.163-51.182,0-70.646
							l129.967-132.01c3.004-3.034,3.004-7.99,0-11.023c-3.004-3.064-7.87-3.064-10.843,0L33.362,160.02
							c-25.17,25.561-25.17,67.161,0,92.722s66.086,25.555,91.256-0.006l0.054-0.054l128.766-133.211
							C256.382,116.406,256.382,111.51,253.379,108.507z"/>
						<path style="fill:#2D213F;" d="M152.883,102.926c3.004,3.034,7.87,3.034,10.843,0l88.247-89.628
							c3.004-3.034,3.004-7.96,0-11.023c-3.004-3.034-7.87-3.034-10.873,0l-88.217,89.628
							C149.879,94.936,149.879,99.862,152.883,102.926z"/>
						<path style="fill:#2D213F;" d="M211.088,86.941L163.12,135.63c-2.974,3.064-2.974,7.99,0,11.053
							c3.004,3.034,7.87,3.034,10.873,0l47.968-48.719c3.004-3.064,3.004-7.99,0-11.023
							C218.957,83.877,214.091,83.877,211.088,86.941z"/>
					</g>
					<g>
						<path style="fill:#2D213F;" d="M102.086,182.938c12.705,12.946,12.705,33.971,0,46.887c-12.735,12.916-33.46,12.916-46.166,0
							c-12.735-12.916-12.735-33.941,0-46.887C68.625,170.021,89.35,170.021,102.086,182.938z M91.212,218.8
							c6.728-6.848,6.728-17.992,0-24.84c-6.728-6.818-17.691-6.818-24.45,0c-6.728,6.848-6.728,17.992,0,24.84
							C73.521,225.649,84.484,225.649,91.212,218.8z"/>
					</g>
				</g>
			</g>
		</g>
	</g>
</g>
</svg>